<svg xmlns="http://www.w3.org/2000/svg" width="1536" height="1024" viewBox="0 0 1536 1024" fill="none">
  <defs>
    <linearGradient id="bg" x1="768" y1="0" x2="768" y2="1024" gradientUnits="userSpaceOnUse">
      <stop offset="0" stop-color="#050B13"/>
      <stop offset="0.42" stop-color="#0A1220"/>
      <stop offset="0.72" stop-color="#091019"/>
      <stop offset="1" stop-color="#04070C"/>
    </linearGradient>
    <radialGradient id="skyGlow" cx="0" cy="0" r="1" gradientUnits="userSpaceOnUse" gradientTransform="translate(768 184) rotate(90) scale(310 680)">
      <stop offset="0" stop-color="#1BE39A" stop-opacity="0.22"/>
      <stop offset="0.48" stop-color="#0F7C68" stop-opacity="0.12"/>
      <stop offset="1" stop-color="#08101A" stop-opacity="0"/>
    </radialGradient>
    <radialGradient id="fieldGlow" cx="0" cy="0" r="1" gradientUnits="userSpaceOnUse" gradientTransform="translate(772 780) rotate(90) scale(220 550)">
      <stop offset="0" stop-color="#23D890" stop-opacity="0.32"/>
      <stop offset="1" stop-color="#1C6C57" stop-opacity="0"/>
    </radialGradient>
    <linearGradient id="field" x1="768" y1="610" x2="768" y2="942" gradientUnits="userSpaceOnUse">
      <stop offset="0" stop-color="#1F7357"/>
      <stop offset="0.52" stop-color="#134D3D"/>
      <stop offset="1" stop-color="#0A241D"/>
    </linearGradient>
    <linearGradient id="board" x1="768" y1="618" x2="768" y2="724" gradientUnits="userSpaceOnUse">
      <stop offset="0" stop-color="#14B88B"/>
      <stop offset="1" stop-color="#0B5B4E"/>
    </linearGradient>
    <linearGradient id="boardEdge" x1="768" y1="618" x2="768" y2="664" gradientUnits="userSpaceOnUse">
      <stop offset="0" stop-color="#D7FFF0" stop-opacity="0.95"/>
      <stop offset="1" stop-color="#B3F7E4" stop-opacity="0.22"/>
    </linearGradient>
    <linearGradient id="shirt" x1="629" y1="487" x2="760" y2="771" gradientUnits="userSpaceOnUse">
      <stop offset="0" stop-color="#123D52"/>
      <stop offset="0.52" stop-color="#0D2333"/>
      <stop offset="1" stop-color="#091421"/>
    </linearGradient>
    <linearGradient id="accent" x1="0" y1="0" x2="1" y2="1">
      <stop offset="0" stop-color="#2BF3AE"/>
      <stop offset="1" stop-color="#16B98D"/>
    </linearGradient>
    <linearGradient id="pad" x1="647" y1="596" x2="740" y2="917" gradientUnits="userSpaceOnUse">
      <stop offset="0" stop-color="#F4FBFF"/>
      <stop offset="1" stop-color="#CAD7E5"/>
    </linearGradient>
    <linearGradient id="bat" x1="799" y1="338" x2="921" y2="592" gradientUnits="userSpaceOnUse">
      <stop offset="0" stop-color="#E9C98B"/>
      <stop offset="1" stop-color="#9C6A31"/>
    </linearGradient>
    <linearGradient id="batHandle" x1="760" y1="420" x2="820" y2="560" gradientUnits="userSpaceOnUse">
      <stop offset="0" stop-color="#1EE8A0"/>
      <stop offset="1" stop-color="#0D7F62"/>
    </linearGradient>
    <linearGradient id="ballTrail" x1="818" y1="520" x2="1244" y2="262" gradientUnits="userSpaceOnUse">
      <stop offset="0" stop-color="#5CFFBF" stop-opacity="0.95"/>
      <stop offset="0.45" stop-color="#D8FFF1" stop-opacity="0.6"/>
      <stop offset="1" stop-color="#FFFFFF" stop-opacity="0"/>
    </linearGradient>
    <linearGradient id="beam" x1="0" y1="0" x2="0" y2="1">
      <stop offset="0" stop-color="#DFFAFF" stop-opacity="0.55"/>
      <stop offset="1" stop-color="#DFFAFF" stop-opacity="0"/>
    </linearGradient>
    <filter id="glowLg" x="-50%" y="-50%" width="200%" height="200%">
      <feGaussianBlur stdDeviation="28" result="blur"/>
      <feMerge>
        <feMergeNode in="blur"/>
        <feMergeNode in="SourceGraphic"/>
      </feMerge>
    </filter>
    <filter id="glowSm" x="-50%" y="-50%" width="200%" height="200%">
      <feGaussianBlur stdDeviation="10" result="blur"/>
      <feMerge>
        <feMergeNode in="blur"/>
        <feMergeNode in="SourceGraphic"/>
      </feMerge>
    </filter>
    <filter id="crowdBlur" x="-10%" y="-10%" width="120%" height="120%">
      <feGaussianBlur stdDeviation="2.2"/>
    </filter>
    <filter id="shadow" x="-30%" y="-30%" width="160%" height="160%">
      <feDropShadow dx="0" dy="22" stdDeviation="18" flood-color="#000" flood-opacity="0.38"/>
    </filter>
    <clipPath id="standClip">
      <path d="M88 296C256 208 525 164 768 164C1011 164 1278 208 1448 296L1398 618C1215 558 984 526 768 526C552 526 319 558 138 618L88 296Z"/>
    </clipPath>
    <path id="boardTextPath" d="M214 666C401 628 579 612 768 612C957 612 1135 628 1322 666"/>
  </defs>

  <rect width="1536" height="1024" fill="url(#bg)"/>
  <rect width="1536" height="1024" fill="url(#skyGlow)"/>
  <rect width="1536" height="1024" fill="url(#fieldGlow)"/>

  <g opacity="0.82">
    <circle cx="160" cy="140" r="2" fill="#B7F9E6"/>
    <circle cx="320" cy="96" r="1.6" fill="#F8FCFF"/>
    <circle cx="508" cy="176" r="1.8" fill="#BFF9EB"/>
    <circle cx="760" cy="112" r="2.2" fill="#F5FEFF"/>
    <circle cx="984" cy="150" r="1.7" fill="#D6FFF2"/>
    <circle cx="1182" cy="98" r="1.4" fill="#F9FCFF"/>
    <circle cx="1360" cy="164" r="2" fill="#C1FFF0"/>
    <circle cx="1276" cy="236" r="1.4" fill="#FFFFFF" opacity="0.6"/>
    <circle cx="252" cy="232" r="1.5" fill="#FFFFFF" opacity="0.55"/>
  </g>

  <g clip-path="url(#standClip)">
    <path d="M80 294C255 202 528 154 768 154C1008 154 1281 202 1456 294L1456 628L80 628L80 294Z" fill="#0C1420"/>
    <path d="M100 324C288 240 547 198 768 198C989 198 1248 240 1436 324" stroke="#183145" stroke-width="4" opacity="0.9"/>
    <path d="M118 388C302 322 556 292 768 292C980 292 1234 322 1418 388" stroke="#17364B" stroke-width="3" opacity="0.75"/>
    <path d="M128 458C316 406 566 382 768 382C970 382 1220 406 1408 458" stroke="#1A3A4D" stroke-width="2" opacity="0.66"/>
    <g filter="url(#crowdBlur)">
      <g fill="#D6FFF6" opacity="0.55">
        <circle cx="228" cy="334" r="3"/><circle cx="262" cy="344" r="2.6"/><circle cx="305" cy="332" r="2.8"/><circle cx="352" cy="348" r="3"/><circle cx="402" cy="338" r="2.5"/><circle cx="456" cy="352" r="2.9"/><circle cx="504" cy="338" r="2.8"/><circle cx="552" cy="350" r="2.4"/><circle cx="596" cy="340" r="2.6"/><circle cx="640" cy="350" r="2.6"/><circle cx="684" cy="338" r="2.7"/><circle cx="728" cy="348" r="2.3"/><circle cx="772" cy="340" r="2.8"/><circle cx="818" cy="350" r="2.4"/><circle cx="864" cy="338" r="2.8"/><circle cx="910" cy="352" r="2.5"/><circle cx="956" cy="340" r="2.7"/><circle cx="1002" cy="350" r="2.3"/><circle cx="1046" cy="340" r="2.8"/><circle cx="1090" cy="352" r="2.5"/><circle cx="1136" cy="340" r="2.8"/><circle cx="1180" cy="350" r="2.5"/><circle cx="1226" cy="340" r="2.8"/>
      </g>
      <g fill="#85B8C1" opacity="0.45">
        <circle cx="248" cy="410" r="2.8"/><circle cx="292" cy="420" r="2.4"/><circle cx="344" cy="408" r="2.7"/><circle cx="392" cy="424" r="2.3"/><circle cx="438" cy="412" r="2.5"/><circle cx="488" cy="426" r="2.7"/><circle cx="534" cy="414" r="2.6"/><circle cx="586" cy="422" r="2.5"/><circle cx="632" cy="412" r="2.7"/><circle cx="680" cy="424" r="2.4"/><circle cx="726" cy="412" r="2.6"/><circle cx="774" cy="424" r="2.5"/><circle cx="820" cy="412" r="2.7"/><circle cx="868" cy="424" r="2.4"/><circle cx="914" cy="412" r="2.6"/><circle cx="964" cy="424" r="2.5"/><circle cx="1012" cy="410" r="2.7"/><circle cx="1058" cy="422" r="2.4"/><circle cx="1108" cy="412" r="2.6"/><circle cx="1154" cy="424" r="2.5"/><circle cx="1204" cy="412" r="2.7"/>
      </g>
    </g>
  </g>

  <g opacity="0.9">
    <ellipse cx="246" cy="210" rx="88" ry="26" fill="#E1FCFF" filter="url(#glowLg)"/>
    <ellipse cx="1290" cy="210" rx="88" ry="26" fill="#E1FCFF" filter="url(#glowLg)"/>
    <ellipse cx="768" cy="132" rx="118" ry="32" fill="#E1FCFF" filter="url(#glowLg)"/>
    <ellipse cx="246" cy="210" rx="78" ry="18" fill="#FFFFFF"/>
    <ellipse cx="1290" cy="210" rx="78" ry="18" fill="#FFFFFF"/>
    <ellipse cx="768" cy="132" rx="108" ry="22" fill="#FFFFFF"/>
    <path d="M182 226L306 226L440 690L82 690L182 226Z" fill="url(#beam)" opacity="0.42"/>
    <path d="M1230 226L1350 226L1454 690L1098 690L1230 226Z" fill="url(#beam)" opacity="0.42"/>
    <path d="M690 148L846 148L998 640L538 640L690 148Z" fill="url(#beam)" opacity="0.24"/>
  </g>

  <path d="M196 638C386 596 573 578 768 578C963 578 1150 596 1340 638L1324 724C1139 680 952 658 768 658C584 658 397 680 212 724L196 638Z" fill="url(#board)" filter="url(#shadow)"/>
  <path d="M196 638C386 596 573 578 768 578C963 578 1150 596 1340 638" stroke="url(#boardEdge)" stroke-width="6" opacity="0.9"/>
  <path d="M220 700C402 662 584 646 768 646C952 646 1134 662 1316 700" stroke="#062E2E" stroke-width="3" opacity="0.55"/>
  <text fill="#EFFFF8" font-size="34" font-weight="700" letter-spacing="6" font-family="Arial, Helvetica, sans-serif">
    <textPath href="#boardTextPath" startOffset="2%">GAME-CHANGRS • GAME-CHANGRS • GAME-CHANGRS • GAME-CHANGRS</textPath>
  </text>

  <ellipse cx="768" cy="814" rx="592" ry="232" fill="url(#field)"/>
  <ellipse cx="768" cy="802" rx="496" ry="178" fill="#1A5E49" opacity="0.45"/>
  <ellipse cx="768" cy="798" rx="324" ry="108" fill="#2A8E6B" opacity="0.18"/>
  <path d="M672 626L864 626L918 866L618 866L672 626Z" fill="#C8A46A" opacity="0.18"/>
  <path d="M710 626L826 626L858 866L678 866L710 626Z" fill="#D7B67A" opacity="0.22"/>
  <path d="M768 598L768 876" stroke="#E3FFF6" stroke-opacity="0.24" stroke-width="4" stroke-dasharray="10 14"/>
  <ellipse cx="768" cy="814" rx="592" ry="232" stroke="#84FFD0" stroke-opacity="0.16" stroke-width="4"/>

  <g opacity="0.65">
    <path d="M694 714C736 694 802 694 842 714" stroke="#F1FFF9" stroke-opacity="0.28" stroke-width="4" stroke-linecap="round"/>
    <path d="M692 746C742 726 792 726 842 746" stroke="#F1FFF9" stroke-opacity="0.16" stroke-width="3" stroke-linecap="round"/>
  </g>

  <g filter="url(#shadow)">
    <ellipse cx="700" cy="832" rx="118" ry="34" fill="#000" opacity="0.34"/>
    <ellipse cx="674" cy="864" rx="68" ry="18" fill="#000" opacity="0.18"/>
  </g>

  <g filter="url(#shadow)">
    <circle cx="683" cy="470" r="34" fill="#071019"/>
    <path d="M650 472C658 436 704 432 718 464C717 496 682 514 652 500C646 492 646 484 650 472Z" fill="#0C1723"/>
    <path d="M651 468C668 452 699 452 715 468" stroke="#26EAA7" stroke-opacity="0.55" stroke-width="4" stroke-linecap="round"/>
    <path d="M634 522L712 504L748 654L642 688L602 582Z" fill="url(#shirt)"/>
    <path d="M637 530L708 510L723 560L622 590Z" fill="#15354C" opacity="0.8"/>
    <path d="M626 553L709 523" stroke="#2BE9A7" stroke-opacity="0.5" stroke-width="5" stroke-linecap="round"/>
    <path d="M662 568L706 552" stroke="#9BFFDA" stroke-opacity="0.25" stroke-width="3" stroke-linecap="round"/>
    <path d="M624 544L668 520L702 532L649 558Z" fill="#12A67E" opacity="0.95"/>
    <path d="M620 578L653 572L646 709L600 718L589 618Z" fill="#0A1825"/>
    <path d="M698 564L742 584L766 692L720 708L690 636Z" fill="#0A1825"/>
    <path d="M618 708L690 698L720 912L642 920L618 816L598 920L520 916L562 742Z" fill="url(#pad)"/>
    <path d="M708 704L780 706L832 916L752 924L710 790Z" fill="url(#pad)"/>
    <path d="M642 920L520 916L512 944L646 950Z" fill="#E7EFF7"/>
    <path d="M752 924L832 916L842 944L742 950Z" fill="#E7EFF7"/>
    <path d="M586 612L614 566L664 614L642 640L584 634Z" fill="#F7FBFF"/>
    <path d="M716 590L754 562L790 604L760 626L718 614Z" fill="#F7FBFF"/>
    <path d="M596 586L566 544L590 528L632 570L606 610Z" fill="#0A1825"/>
    <path d="M742 566L786 506L822 526L772 594L734 608Z" fill="#0A1825"/>
    <path d="M772 448L820 416L910 586L858 618L772 448Z" fill="url(#batHandle)"/>
    <path d="M804 362L900 318L996 548L890 598L804 362Z" fill="url(#bat)"/>
    <path d="M810 372L908 328L946 416L850 460Z" fill="#F4DEB3" opacity="0.8"/>
    <path d="M886 600L1004 546L1016 580L900 634Z" fill="#E4C182" opacity="0.82"/>
    <path d="M708 464L760 442L789 522L736 546L708 464Z" fill="#0A1825"/>
    <path d="M620 508L582 534L606 580L650 562Z" fill="#0A1825"/>
    <path d="M654 470L702 456L720 488L672 506Z" fill="#11273A"/>
    <path d="M672 430L702 428L718 450L652 468Z" fill="#09121C"/>
    <path d="M640 486C652 472 674 468 692 470" stroke="#83FFD1" stroke-opacity="0.28" stroke-width="5" stroke-linecap="round"/>
  </g>

  <g filter="url(#glowSm)">
    <path d="M786 520C906 458 1038 372 1212 260" stroke="url(#ballTrail)" stroke-width="14" stroke-linecap="round" opacity="0.9"/>
    <path d="M780 534C876 490 1012 408 1184 286" stroke="#DEFFF6" stroke-opacity="0.35" stroke-width="4" stroke-linecap="round"/>
    <circle cx="1218" cy="258" r="14" fill="#FFFFFF"/>
    <circle cx="1218" cy="258" r="28" fill="#FFFFFF" fill-opacity="0.24"/>
    <circle cx="1218" cy="258" r="42" fill="#61FFC4" fill-opacity="0.18"/>
    <path d="M764 526C775 512 792 506 812 508" stroke="#E8FFF8" stroke-width="5" stroke-linecap="round" opacity="0.7"/>
    <path d="M770 516C780 503 795 498 814 499" stroke="#42F8B2" stroke-width="8" stroke-linecap="round" opacity="0.35"/>
  </g>

  <g opacity="0.78">
    <rect x="112" y="742" width="286" height="10" rx="5" fill="#E7FFF8" fill-opacity="0.08"/>
    <rect x="1138" y="770" width="232" height="10" rx="5" fill="#E7FFF8" fill-opacity="0.08"/>
    <rect x="1060" y="314" width="148" height="6" rx="3" fill="#E7FFF8" fill-opacity="0.08"/>
  </g>
</svg>